<?xml version="1.0" standalone="no"?>
<!DOCTYPE svg PUBLIC "-//W3C//DTD SVG 20010904//EN"
 "http://www.w3.org/TR/2001/REC-SVG-20010904/DTD/svg10.dtd">
<svg version="1.0" xmlns="http://www.w3.org/2000/svg"
 width="1024.000000pt" height="1024.000000pt" viewBox="0 0 1024.000000 1024.000000"
 preserveAspectRatio="xMidYMid meet">

<g transform="translate(0.000000,1024.000000) scale(0.100000,-0.100000)"
fill="#000000" stroke="none">
<path d="M3675 7325 c-223 -35 -407 -119 -575 -261 -154 -129 -279 -314 -343
-505 -59 -178 -58 -145 -55 -1639 l3 -1365 27 -96 c52 -192 130 -338 254 -482
135 -158 357 -296 569 -354 l100 -28 1470 0 1470 0 100 27 c364 101 657 378
784 741 64 183 62 131 59 1647 l-3 1375 -28 100 c-129 459 -502 784 -967 845
-121 15 -2765 11 -2865 -5z m2822 -276 c295 -40 541 -214 670 -474 42 -83 71
-172 83 -252 7 -45 10 -507 8 -1393 l-3 -1325 -22 -75 c-100 -341 -374 -598
-695 -650 -41 -6 -549 -10 -1421 -10 -1496 0 -1429 -3 -1585 62 -85 35 -202
110 -269 170 -62 57 -155 184 -192 261 -16 34 -42 103 -58 152 l-28 90 -3
1324 c-2 1182 -1 1334 14 1410 69 369 358 649 729 707 106 16 2653 20 2772 3z"/>
<path d="M5829 5613 c-234 -241 -575 -593 -758 -783 -184 -190 -337 -346 -341
-348 -4 -1 -141 135 -304 303 -164 168 -301 305 -305 305 -3 0 -78 -69 -166
-154 l-160 -154 156 -158 c85 -88 292 -300 459 -471 166 -172 305 -312 309
-312 3 1 78 77 166 168 763 790 1010 1046 1374 1419 l305 313 -155 155 -155
155 -425 -438z"/>
</g>
</svg>
